<svg width="257" height="361" viewBox="0 0 257 361" fill="none" xmlns="http://www.w3.org/2000/svg">
<path d="M128.393 360.746L24.2106 331.824L0.994102 71.4236H256.104L232.863 331.783L128.393 360.746Z" fill="#264DE4"/>
<path d="M212.966 315.204L232.827 92.7151H128.549V338.608L212.966 315.204Z" fill="#2965F1"/>
<path d="M54.2175 189.294L57.0799 221.231H128.549V189.294H54.2175Z" fill="#EBEBEB"/>
<path d="M48.4659 124.653L51.3691 156.59H128.549V124.653H48.4659Z" fill="#EBEBEB"/>
<path d="M128.549 272.238L128.409 272.275L92.8404 262.671L90.5667 237.2H58.5069L62.9813 287.345L128.402 305.507L128.549 305.466V272.238Z" fill="#EBEBEB"/>
<path d="M61.0324 0.657837H99.7137V16.8337H77.2083V33.0095H99.7137V49.1853H61.0324V0.657837Z" fill="black"/>
<path d="M107.45 0.657837H146.131V14.7238H123.626V17.537H146.131V49.8886H107.45V35.1194H129.955V32.3062H107.45V0.657837Z" fill="black"/>
<path d="M153.868 0.657837H192.549V14.7238H170.043V17.537H192.549V49.8886H153.868V35.1194H176.373V32.3062H153.868V0.657837Z" fill="black"/>
<path d="M202.676 189.294L208.441 124.653H128.438V156.59H173.441L170.535 189.294H128.438V221.231H167.765L164.058 262.651L128.438 272.265V305.491L193.911 287.346L194.392 281.95L201.896 197.87L202.676 189.294Z" fill="white"/>
</svg>
