<svg width="18" height="17" viewBox="0 0 18 17" fill="none" xmlns="http://www.w3.org/2000/svg">
<g clip-path="url(#clip0_2444_111)">
<path fill-rule="evenodd" clip-rule="evenodd" d="M8.69021 0.5354C4.16204 0.5354 0.490173 4.20773 0.490173 8.73791C0.490173 12.3621 2.83973 15.4367 6.09788 16.5213C6.50767 16.5972 6.65816 16.3434 6.65816 16.1267C6.65816 15.9311 6.6505 15.2849 6.64703 14.5996C4.36571 15.0957 3.88434 13.6318 3.88434 13.6318C3.51133 12.6837 2.97388 12.4316 2.97388 12.4316C2.22993 11.9225 3.02996 11.9329 3.02996 11.9329C3.85341 11.9908 4.28699 12.7782 4.28699 12.7782C5.01834 14.0322 6.20528 13.6697 6.67321 13.4601C6.74678 12.9299 6.95933 12.5681 7.19381 12.3633C5.37251 12.1558 3.45783 11.4525 3.45783 8.30953C3.45783 7.41405 3.77816 6.68228 4.30275 6.10787C4.2176 5.90124 3.93695 5.067 4.38217 3.93716C4.38217 3.93716 5.07076 3.71669 6.63777 4.77796C7.29182 4.59616 7.99333 4.50507 8.69021 4.50198C9.38708 4.50507 10.0891 4.59616 10.7444 4.77796C12.3096 3.71669 12.9972 3.93716 12.9972 3.93716C13.4435 5.067 13.1627 5.90124 13.0776 6.10787C13.6033 6.68228 13.9215 7.41398 13.9215 8.30953C13.9215 11.4599 12.0032 12.1537 10.1773 12.3567C10.4714 12.6113 10.7334 13.1105 10.7334 13.8757C10.7334 14.9732 10.7239 15.8565 10.7239 16.1267C10.7239 16.345 10.8715 16.6008 11.2872 16.5202C14.5436 15.4344 16.8902 12.3608 16.8902 8.73791C16.8902 4.20773 13.2188 0.5354 8.69021 0.5354Z" fill="white"/>
<path d="M3.56536 12.2179C3.54748 12.2588 3.48376 12.271 3.42585 12.243C3.36679 12.2162 3.33359 12.1604 3.35274 12.1194C3.3703 12.0773 3.43402 12.0655 3.49295 12.0938C3.55214 12.1206 3.58585 12.1769 3.56536 12.2179ZM3.96582 12.5791C3.927 12.6155 3.85108 12.5986 3.79956 12.5411C3.74631 12.4837 3.73635 12.407 3.77574 12.37C3.81577 12.3337 3.88939 12.3507 3.94277 12.4081C3.99602 12.4661 4.00636 12.5424 3.96575 12.5791L3.96582 12.5791ZM4.24056 13.0412C4.19063 13.0762 4.10903 13.0434 4.05865 12.9702C4.00879 12.8971 4.00879 12.8093 4.05974 12.7741C4.11031 12.739 4.19063 12.7706 4.24171 12.8432C4.29151 12.9176 4.29151 13.0054 4.24049 13.0413L4.24056 13.0412ZM4.70512 13.5764C4.66049 13.6261 4.56548 13.6128 4.49589 13.5449C4.42476 13.4786 4.40491 13.3844 4.44966 13.3347C4.4948 13.2848 4.59039 13.2988 4.66049 13.3662C4.73117 13.4324 4.75275 13.5272 4.70519 13.5764H4.70512ZM5.30555 13.7571C5.28595 13.8216 5.19439 13.8509 5.1022 13.8235C5.01013 13.7953 4.94985 13.7198 4.96843 13.6547C4.98759 13.5898 5.07953 13.5593 5.17243 13.5886C5.26437 13.6166 5.32477 13.6916 5.30562 13.7571H5.30555ZM5.98899 13.8337C5.99129 13.9016 5.91307 13.9579 5.81628 13.9592C5.71891 13.9613 5.64018 13.9064 5.63916 13.8396C5.63916 13.7711 5.71559 13.7153 5.8129 13.7137C5.90969 13.7118 5.98899 13.7663 5.98899 13.8337ZM6.66029 13.8077C6.67191 13.874 6.60462 13.942 6.50853 13.9601C6.41403 13.9775 6.32656 13.9366 6.31449 13.871C6.30274 13.8031 6.37132 13.7351 6.46562 13.7175C6.5619 13.7006 6.64804 13.7404 6.66029 13.8077Z" fill="white"/>
</g>
<defs>
<clipPath id="clip0_2444_111">
<rect width="17" height="16" fill="white" transform="translate(0.490173 0.5354)"/>
</clipPath>
</defs>
</svg>
