<svg width="25" height="25" viewBox="0 0 25 25" fill="none" xmlns="http://www.w3.org/2000/svg">
<g clip-path="url(#clip0_2445_73)">
<path d="M17.8356 0.505425C17.2906 0.508425 16.7516 0.639425 16.5796 0.872425C16.4696 1.03742 16.3876 2.06842 16.4696 2.59042C16.4696 2.59042 16.5016 2.93542 16.5596 3.20442C16.5534 3.26513 16.5467 3.3258 16.5396 3.38642C16.5161 3.58941 16.4838 3.79127 16.4426 3.99142C16.4326 4.04742 16.2356 4.08642 16.0176 4.14342C15.9721 4.1281 15.926 4.11409 15.8796 4.10142C15.6456 4.03242 15.4946 4.22442 15.2616 4.36142C15.1926 4.32142 14.8906 4.18342 14.7256 4.27942C14.5606 4.37542 14.4506 4.47242 14.2856 4.54042C14.2036 4.49942 13.9836 4.49942 13.8056 4.56842C13.626 4.62419 13.4611 4.71914 13.3226 4.84642C11.0086 5.42642 8.50964 6.48142 8.31064 6.58742C7.29364 7.10942 5.63164 8.00242 4.87664 8.62042C3.58564 9.69142 2.81664 10.9424 2.51364 11.8624C2.12864 13.0024 2.23864 13.6894 2.60964 13.2494C2.90764 12.8834 4.24164 11.7954 5.08464 11.2504L5.08264 11.2574C5.22218 11.1592 5.36931 11.0723 5.52264 10.9974L5.75564 10.8734L6.26064 10.5504C6.86264 11.1024 7.06364 11.9834 7.19764 13.1804C7.41764 15.0214 8.90164 15.8734 10.6316 15.9004C12.4316 15.9284 13.0776 16.2994 13.7506 17.2054C13.9036 17.4064 14.0686 17.5124 14.2206 17.5734C14.1524 17.702 14.0987 17.8379 14.0606 17.9784C13.9856 18.1484 13.9356 18.3584 13.9036 18.5864C13.8873 18.6084 13.8769 18.6342 13.8736 18.6614C13.8056 19.1974 13.8186 20.4614 13.8056 21.1344C13.7916 21.8074 13.7776 21.9044 13.7226 22.0004C13.6676 22.1104 13.6126 22.1784 13.5446 22.4674C13.4756 22.7694 13.3516 22.8514 13.2286 23.0984C13.0226 23.4834 13.0636 23.9084 13.2696 24.1014C13.4756 24.2934 14.0396 24.5824 14.8076 24.4864C15.5776 24.3904 15.6876 24.3354 15.5636 23.5934C15.5496 23.4834 15.3716 22.9884 15.4266 22.7964C15.5086 22.5904 15.3306 22.2334 15.3716 22.2194C15.4126 22.2054 15.4676 21.9314 15.4676 21.7934C15.4676 21.6564 15.4536 20.9974 15.6046 20.6534C15.6666 20.5134 15.7976 20.1934 15.9306 19.8684C16.3726 19.1454 16.3896 18.7074 16.4106 18.4584C16.4406 18.2564 16.4566 17.9984 16.4286 17.7144C16.4836 17.6314 16.7176 17.4394 16.7446 17.0684C16.7446 17.0684 17.3886 16.7314 17.8466 15.9204C18.0066 16.4774 18.1566 16.8304 18.1326 17.1924C17.6336 17.5824 17.4486 17.8704 17.3726 18.1514C17.3246 18.1314 17.2966 18.1144 17.2626 18.1114H17.2356C17.1992 18.1166 17.1636 18.1263 17.1296 18.1404C16.9376 18.2084 17.0886 19.4584 17.2946 19.9674C17.5006 20.4754 17.6106 20.7774 17.6926 21.3274C17.7756 21.8764 17.5006 22.5494 17.3906 22.8514C17.3906 22.8514 17.2116 23.3874 17.6236 23.6754C17.9816 23.9234 19.3276 23.8554 19.9316 23.8554C20.5366 23.8554 21.4426 24.0744 22.0196 23.9644C22.7346 23.8404 22.8436 23.4144 22.4186 23.1944C21.9926 22.9744 21.3466 22.8654 20.5086 22.2614C20.2886 22.1094 19.9866 21.9724 19.9456 21.8494C19.9046 21.7254 19.9046 21.0114 19.9186 20.3924C19.9316 19.7744 20.1386 18.9784 20.2066 18.5524C20.2706 18.1544 20.1306 18.1644 19.9446 18.2014C19.9766 18.0544 20.0106 17.9094 20.0416 17.7554C20.3856 17.1234 20.2346 16.5324 20.2346 16.5324C21.0546 15.4884 20.6346 13.2624 20.4546 12.4844C21.0946 12.7874 21.4146 12.6724 21.4146 12.6724C21.5166 12.6174 21.6066 12.5384 21.6886 12.4484C22.0256 12.0864 22.1986 11.5324 22.1986 11.5324V11.5054C22.9806 10.7224 23.3496 9.56942 22.4586 8.81342C22.5314 8.60149 22.5495 8.37461 22.5112 8.15382C22.4729 7.93304 22.3795 7.72549 22.2396 7.55042C22.3606 7.25838 22.39 6.93648 22.3239 6.62737C22.2578 6.31825 22.0994 6.03649 21.8696 5.81942C21.7301 5.68711 21.5641 5.58589 21.3826 5.52242C21.1826 5.22742 21.1376 5.10542 20.8106 5.17342C20.6606 5.00842 20.6326 4.88542 20.3166 4.99542C20.3166 4.99542 20.2206 4.76142 20.0416 4.70642C20.0255 4.69969 20.0088 4.69467 19.9916 4.69142C19.6896 4.48142 19.4156 4.47642 19.2196 4.53142C19.1556 4.48342 19.1586 4.40742 19.1496 4.14342C19.1416 3.94342 19.1306 3.65742 19.1186 3.39942C19.1456 3.07142 19.2206 2.42542 19.2446 2.09642C19.2726 1.72642 19.2866 1.14842 19.1216 0.901425C18.9286 0.625425 18.3796 0.502425 17.8356 0.505425ZM17.8306 0.845425C18.5306 0.845425 18.8326 1.06542 18.8746 1.18842C18.8876 1.21642 18.9566 1.68342 18.9146 1.98542C18.9016 2.09542 18.8876 2.49442 18.8606 2.67242C18.8466 2.85142 18.7916 3.05742 18.7366 3.34542C18.6956 3.57942 18.5036 3.84042 18.3526 3.88142C18.0916 3.95042 17.6106 3.93642 17.3356 3.88142C17.2666 3.86742 17.2116 3.82642 17.1436 3.78542C16.9926 3.53742 16.9096 3.34542 16.8826 3.04342C16.8546 2.75442 16.7996 2.63142 16.7866 2.41142C16.7726 2.08142 16.7726 1.86142 16.7726 1.86142C16.7866 1.68342 16.8416 1.24342 16.8416 1.20242C16.8546 1.07942 17.0746 0.845425 17.8306 0.845425V0.845425ZM16.6976 3.54742C16.8436 3.69642 16.9986 3.85342 17.1296 3.96342C17.2536 4.07342 17.5556 4.05942 17.8296 4.05942C18.0776 4.05942 18.2976 4.08742 18.3936 4.03242C18.5476 3.95542 18.7486 3.79742 18.9166 3.63842C18.9276 3.79042 18.9386 3.94242 18.9426 4.07342C18.9526 4.36842 18.8996 4.54142 18.9666 4.64342C18.8846 4.69142 18.7926 4.74842 18.6976 4.79942C18.5466 4.87942 18.3916 4.93542 18.2946 4.91442H18.2926C18.0836 4.87942 17.3616 4.69942 16.9616 4.50742C16.7946 4.24842 16.6266 4.10942 16.6356 4.05942C16.6626 3.92242 16.6756 3.81242 16.6896 3.63442C16.6936 3.60442 16.6946 3.57642 16.6976 3.54642V3.54742ZM15.8446 4.23742L15.8796 4.23842C16.3036 4.27442 16.5296 4.39042 16.6876 4.52242L16.7636 4.55242L16.7716 4.52542C16.8186 4.55542 16.8736 4.58542 16.9336 4.61342C17.4036 4.77242 18.0376 4.92142 18.2426 4.96642C18.4896 5.02142 18.8876 4.77442 19.0806 4.65042C19.4236 4.43042 19.8636 4.61042 20.0696 4.84342C20.2066 4.99342 20.2616 5.09042 20.2616 5.13142C20.5776 5.02142 20.6186 5.17242 20.7696 5.33742C21.1546 5.15842 21.1816 5.37842 21.2096 5.47442C21.0876 5.47442 20.9116 5.48842 20.6716 5.51442L20.6596 5.50242C20.5156 5.34942 20.2576 5.21342 20.0606 5.11842C19.9736 5.08742 19.8806 5.06942 19.8086 5.02142C19.6986 4.96642 19.5886 4.88442 19.4236 4.89842C18.7366 4.98042 18.5996 5.21342 18.0086 5.07642C17.4316 4.94242 17.2716 4.82242 16.6756 4.85542L16.6766 4.88142C16.5716 4.89742 16.4766 4.91142 16.4566 4.91142C16.2506 4.92342 15.7346 4.97842 15.3036 4.81142C15.2518 4.78231 15.198 4.75692 15.1426 4.73542L15.1376 4.73342H15.1366C14.9566 4.66342 14.7466 4.62342 14.5066 4.62142H14.4806C14.6986 4.51142 14.8366 4.36242 15.0406 4.40342C15.2606 4.44442 15.4806 4.62342 15.6046 4.76042C15.565 4.65355 15.5045 4.55565 15.4266 4.47242C15.5546 4.38242 15.6716 4.24342 15.8446 4.23842V4.23742ZM14.7446 4.78242C14.8946 4.78442 15.0246 4.80842 15.1616 4.85542C15.1796 4.86442 15.1956 4.87342 15.2206 4.88442C15.5086 5.02142 16.0306 5.04842 16.4706 5.02142C16.6616 5.01369 16.8507 4.98176 17.0336 4.92642C17.3556 4.95042 17.5476 5.03642 18.0106 5.14242C18.3206 5.21242 18.5126 5.18742 18.7056 5.13542C18.8986 5.08242 19.0916 5.00542 19.4286 4.96542C19.4916 4.95875 19.5552 4.96315 19.6166 4.97842C19.6546 4.99842 19.6916 5.01842 19.7266 5.03942C19.7886 5.08842 19.9406 5.17442 20.0696 5.22842C20.2336 5.29642 20.6596 5.58542 20.7146 5.65342C20.7247 5.66639 20.7377 5.67669 20.7526 5.68342C20.9946 5.99742 21.1596 6.43842 21.1486 6.89342C21.0886 7.35342 20.7226 7.10742 20.5226 7.01342C20.1106 6.83542 19.6986 6.71142 19.2176 6.71142C18.7376 6.71142 18.1186 6.75242 17.5826 6.89042C16.8416 7.09642 16.6216 7.08242 16.2926 6.91742C15.9626 6.73942 15.3856 6.29942 15.3856 6.29942V6.30942C15.3786 6.30242 15.3736 6.29742 15.3716 6.29942C15.3296 6.36842 15.2336 6.54642 15.1786 6.62942C15.1516 7.15142 14.8356 7.97542 14.2446 8.18142C14.1686 8.20963 14.0873 8.22058 14.0065 8.21349C13.9258 8.2064 13.8476 8.18144 13.7776 8.14042C13.6063 8.0265 13.4216 7.93414 13.2276 7.86542C13.7086 8.24942 13.9566 8.53842 14.1766 9.04642C14.3506 9.47642 14.5916 10.0634 15.1786 10.6924C15.5416 10.6884 15.9036 10.7894 16.1406 11.0384C16.2776 11.1754 16.4976 11.3274 16.4706 11.4644C16.4706 11.5054 16.3876 11.6154 16.3196 11.6984C16.2541 11.7749 16.185 11.8484 16.1126 11.9184C16.0586 11.9584 15.8656 12.1104 15.8246 12.1384C15.7836 12.1654 15.7286 12.2334 15.6876 12.2474C15.5496 12.3164 15.3986 12.2614 15.2616 12.1924C15.1246 12.1234 15.2886 12.1104 15.1376 12.0004C14.7976 11.7604 14.5966 11.5894 14.6836 11.1684C13.7516 10.3744 12.1226 9.90842 11.7726 9.06042C11.5526 8.51042 11.5246 8.23642 11.7306 8.00242C12.3356 7.31542 12.1016 6.65642 12.5556 6.36842C12.9806 6.09342 13.3386 6.40842 13.5446 6.69842C13.4206 6.18942 12.9946 6.06542 12.9946 6.02442C12.9946 5.39242 13.5996 4.95342 14.2046 4.84342C14.4226 4.80242 14.5936 4.78142 14.7446 4.78342V4.78242ZM12.8976 5.31642C12.7576 5.51242 12.6666 5.75142 12.6516 6.03742C12.4456 6.06542 11.9786 6.09242 11.7446 6.94442C11.6935 7.15752 11.6218 7.36516 11.5306 7.56442C11.4276 7.60942 8.58464 8.83842 6.30164 10.1064L6.29164 10.0994C5.97164 10.2794 5.66464 10.4624 5.37264 10.6454L5.24764 10.7224L5.24664 10.7254C4.11064 11.4484 3.20664 12.1754 2.60964 12.8374C3.02164 10.1584 5.13764 8.75742 6.13964 8.13942C8.55964 6.65042 10.7686 5.91442 12.8976 5.31642V5.31642ZM20.9346 5.63942C21.1946 5.63542 21.4706 5.69942 21.6906 5.91442C22.2806 6.49142 22.1156 7.12342 21.9376 7.56242C22.0876 7.74142 22.4456 8.24942 22.2256 8.85342C22.1856 8.99142 21.8826 8.99142 21.6626 9.34842C22.2126 9.03242 22.5556 9.11542 22.6796 9.51342C22.8716 10.1314 22.4456 10.8734 22.0746 11.2854C22.0746 11.2714 22.0606 11.2574 22.0606 11.2444C22.0056 11.4504 21.9376 11.8484 21.5256 12.2884C21.3196 12.5084 21.1546 12.4804 20.9206 12.4254C20.7056 12.3714 20.5986 12.2834 20.3776 12.1494C20.3416 11.9424 20.2756 11.6674 20.2756 11.5594C20.2756 11.5154 20.2716 11.4184 20.2656 11.3164C20.2976 11.2804 20.3316 11.2424 20.3716 11.2024C20.3716 11.2024 20.5496 10.9554 20.8116 10.9694C21.0716 10.9834 21.3466 10.9284 21.4156 10.8594C21.4156 10.3794 20.8656 10.3654 21.0586 9.54042C21.0716 9.50042 21.1406 9.43042 21.3606 9.40342C21.0306 9.33442 20.8806 9.32042 20.6466 9.10142L20.6336 9.08842C20.7436 8.83542 20.8576 8.63142 20.9346 8.48342C21.1276 8.09842 21.0166 7.63142 21.0166 7.63142C21.2236 7.56242 21.4016 7.45242 21.4296 7.38442C21.6326 6.71142 21.2656 6.06242 20.8246 5.64442C20.8606 5.64142 20.8976 5.63942 20.9346 5.63842V5.63942ZM15.4746 6.56442C15.4846 6.58042 15.4946 6.59742 15.5086 6.61442C15.6876 6.83442 16.0856 7.10942 16.6216 7.28742C16.8816 7.37042 17.0886 7.31542 17.3216 7.26042C18.4446 6.98242 19.6256 6.91442 20.6516 7.41542C20.7085 7.77911 20.6538 8.15149 20.4946 8.48342C20.2626 8.94842 19.9616 9.55142 20.0146 10.6984C19.7686 10.7424 18.5956 10.8424 18.0226 10.7354C17.5016 10.6384 16.6066 10.2104 16.4026 10.0454C16.3429 9.76571 16.3012 9.48247 16.2776 9.19742C16.4513 9.11612 16.606 8.99927 16.7316 8.85442C16.3196 8.92242 16.1546 8.89442 15.9066 8.75742C15.6716 8.62742 15.2646 8.22442 15.0366 7.93742C15.2656 7.64742 15.4296 7.24742 15.3716 6.71142C15.4086 6.66142 15.4416 6.61242 15.4736 6.56442H15.4746ZM11.0946 8.16242C11.0046 8.41542 11.1876 8.81642 11.3186 9.11542C11.8266 10.2944 13.3886 10.4054 14.4456 11.2954C14.4295 11.4278 14.4502 11.5621 14.5056 11.6834C14.5886 11.8484 14.8766 12.0964 14.8766 12.0964C14.8216 12.1504 14.8496 12.2604 14.8496 12.2604C15.0536 12.4774 15.3536 12.5034 15.3966 12.5064C14.9616 13.7544 14.5806 15.1324 14.9456 16.6014C14.7666 16.8454 14.5776 17.0464 14.4146 17.2694C14.2368 17.2172 14.0809 17.1083 13.9706 16.9594C13.3796 16.1074 12.5136 15.5434 10.9476 15.5854C8.59864 15.6404 7.66464 14.6784 7.48664 12.8374C7.39264 11.8634 7.12964 10.9154 6.59864 10.3584C8.11464 9.51942 10.2256 8.44242 10.8936 8.23542C10.9612 8.21364 11.0279 8.18928 11.0936 8.16242H11.0946ZM14.5906 8.34242C14.9716 8.78442 15.3856 9.06942 15.7836 9.32142C15.8656 9.66442 15.8936 9.89842 15.9756 10.3514H15.9346L15.9076 10.6594C15.7058 10.5988 15.4979 10.5609 15.2876 10.5464L15.2886 10.5434C14.3956 9.48642 14.5886 9.07342 14.2306 8.52442C14.3276 8.49042 14.4556 8.43042 14.5906 8.34242V8.34242ZM20.5016 9.42842C20.5776 9.49542 20.6796 9.54842 20.8246 9.58242C20.4976 10.2624 21.1546 10.4944 21.1946 10.7524C21.0516 10.8354 20.8276 10.7894 20.5916 10.7774C20.4766 10.7714 20.3626 10.8424 20.2706 10.9244L20.3026 10.5574C20.3086 10.1274 20.3926 9.74842 20.5026 9.42742L20.5016 9.42842ZM16.4156 10.4524C16.4396 10.4874 16.5936 10.5834 17.4176 10.8044C18.4436 11.0794 19.7406 10.9244 19.9676 10.8944C19.9639 10.9249 19.9566 10.9548 19.9456 10.9834C19.9456 11.3264 20.0006 11.5734 20.0416 11.7934C20.0946 12.1014 20.1716 12.3264 20.2046 12.5334L20.2126 12.5264C20.4466 13.8934 20.7736 15.6594 19.9456 16.5744C19.9866 16.7664 20.0146 17.0414 19.9596 17.3574C19.9249 17.5398 19.8744 17.7188 19.8086 17.8924C19.7632 18.0067 19.7271 18.1244 19.7006 18.2444C18.6006 18.3864 17.9456 18.2994 17.6406 18.2294C17.7636 17.8554 18.0476 17.4754 18.5166 17.4944C18.4946 16.5834 18.2526 16.2714 18.0056 15.6034C18.4006 14.7204 18.3046 13.9384 18.6266 12.7554C18.3796 13.0164 18.1866 13.9644 18.0226 14.5414C17.8166 15.3794 17.4596 16.1894 16.4976 16.8354C16.4976 17.0554 16.4286 17.2194 16.3466 17.3294C16.1676 17.5904 15.9346 17.6734 15.8526 18.0994C15.9626 17.9614 16.1126 17.8384 16.1126 17.8794C16.1091 18.044 16.1007 18.2084 16.0876 18.3724L16.0996 18.3734C15.9346 19.4174 15.5776 19.8984 15.3576 20.4884C15.2066 20.9144 15.2616 21.8484 15.2066 21.8624C14.8216 21.9454 14.2316 21.7944 14.0666 21.7124C14.2286 20.5724 14.0856 19.4344 14.5026 18.1124L14.4876 18.1064C14.6476 17.5524 14.9656 17.2284 15.4266 16.6424C15.2656 16.1224 14.8946 15.0024 15.6926 12.4604C15.7256 12.4464 15.7596 12.4304 15.7976 12.4114L16.0036 12.2744C16.0436 12.2464 16.0996 12.2054 16.1406 12.1784C16.2096 12.1364 16.5116 11.8074 16.5526 11.7664C16.6486 11.6694 16.7176 11.6424 16.7446 11.5324C16.7996 11.3264 16.4976 11.1204 16.3746 10.9824C16.3566 10.9634 16.3446 10.9484 16.3316 10.9324C16.3446 10.8934 16.3586 10.8554 16.3736 10.8184C16.3836 10.6934 16.4016 10.5584 16.4156 10.4514V10.4524ZM17.2986 18.3944C17.3486 18.3964 17.4726 18.5164 18.0496 18.5524C18.7096 18.5924 19.5886 18.4694 19.8216 18.4144C20.0556 18.3594 19.9186 18.5244 19.8906 18.6894L19.8646 18.8584C19.4656 18.9924 18.8566 19.0464 18.4486 19.0604C18.0556 19.0734 17.6026 19.0484 17.2876 18.9504C17.2396 18.6904 17.2246 18.4804 17.2806 18.4004C17.2831 18.3983 17.2859 18.3966 17.289 18.3956C17.2921 18.3945 17.2954 18.3941 17.2986 18.3944V18.3944ZM19.8046 19.2404C19.7846 19.3754 19.7696 19.4634 19.7466 19.6124C19.3586 19.7324 18.8586 19.7344 18.4766 19.7474C18.1377 19.7631 17.7982 19.7396 17.4646 19.6774C17.4526 19.6414 17.4416 19.6051 17.4316 19.5684C17.409 19.4847 17.3873 19.4007 17.3666 19.3164C17.5456 19.3504 17.8966 19.3954 18.5166 19.4034C18.9519 19.4171 19.3865 19.3621 19.8046 19.2404V19.2404ZM19.6986 19.9254C19.6296 20.3654 19.6436 21.7114 19.6846 22.0824C19.6986 22.1924 20.6326 22.6044 20.9616 22.8524C21.0686 22.9374 21.2206 23.0094 21.3836 23.0744C21.4256 23.1164 21.4996 23.1794 21.5806 23.2774C21.7426 23.4904 21.6326 23.7134 21.4456 23.8034C21.1816 23.7964 20.8776 23.7514 20.3716 23.6754C19.6766 23.5714 19.2426 23.5744 18.6416 23.5694V23.5664C18.4896 23.2914 18.5856 22.8384 18.5856 22.8384C18.307 22.8302 18.0325 22.7691 17.7766 22.6584L17.7886 22.6324C18.0226 22.1524 18.0086 22.0414 17.9396 21.2174C17.8926 20.6394 17.7436 20.3344 17.6046 20.0224C17.7736 20.0384 18.0136 20.0574 18.4616 20.0634C18.8783 20.0741 19.2945 20.0277 19.6986 19.9254V19.9254ZM14.3926 22.0094C14.6356 22.0094 14.9926 22.0414 15.0686 22.1094V22.1234C15.0826 22.2884 15.2336 22.5224 15.1786 22.6454C15.1516 22.7144 15.0826 22.6044 14.9866 22.5774C15.0276 22.8374 15.1376 23.3184 15.3026 23.6894C15.4126 23.9374 15.3436 24.1154 14.9726 24.1844C14.6426 24.1984 14.2176 24.1844 13.8606 24.1014C13.4486 23.8954 13.3106 23.7854 13.3936 23.4014C13.4616 23.1264 13.8876 22.8114 14.2586 22.5634C14.0526 22.5774 13.8326 22.7284 13.8606 22.5494C13.9156 22.1924 14.0666 22.2194 14.1626 22.0414C14.1426 22.0214 14.2466 22.0094 14.3926 22.0094V22.0094Z" fill="black"/>
</g>
<defs>
<clipPath id="clip0_2445_73">
<rect width="24" height="24" fill="white" transform="translate(0.625641 0.505371)"/>
</clipPath>
</defs>
</svg>
