<svg width="256" height="361" viewBox="0 0 256 361" fill="none" xmlns="http://www.w3.org/2000/svg">
<path d="M255.11 70.7657L231.868 331.125L127.399 360.088L23.2165 331.166L0 70.7657H255.11Z" fill="#E44D26"/>
<path d="M127.555 337.95L211.972 314.547L231.833 92.0574H127.555V337.95Z" fill="#F16529"/>
<path d="M82.375 155.932H127.555V123.995H47.4718L48.2363 132.563L56.0858 220.573H127.555V188.636H85.2937L82.375 155.932Z" fill="#EBEBEB"/>
<path d="M89.5726 236.542H57.5128L61.9872 286.688L127.408 304.849L127.555 304.808V271.58L127.415 271.618L91.8463 262.013L89.5726 236.542Z" fill="#EBEBEB"/>
<path d="M23.7356 0H39.9655V16.0352H54.8121V0H71.0428V48.5584H54.8128V32.2982H39.9662V48.5584H23.7363V0H23.7356Z" fill="black"/>
<path d="M92.3858 16.1027H78.0976V0H122.912V16.1027H108.617V48.5584H92.3865V16.1027H92.3858Z" fill="black"/>
<path d="M130.024 0H146.948L157.358 17.062L167.757 0H184.687V48.5584H168.524V24.4902L157.358 41.7554H157.079L145.905 24.4902V48.5584H130.024V0Z" fill="black"/>
<path d="M192.764 0H208.999V32.5078H231.823V48.5584H192.764V0Z" fill="black"/>
<path d="M127.444 220.573H166.771L163.064 261.993L127.444 271.607V304.833L192.917 286.688L193.397 281.292L200.902 197.212L201.682 188.636H127.444V220.573Z" fill="white"/>
<path d="M127.444 155.854V155.932H204.588L205.228 148.754L206.683 132.563L207.447 123.995H127.444V155.854Z" fill="white"/>
</svg>
