<svg width="257" height="257" viewBox="0 0 257 257" fill="none" xmlns="http://www.w3.org/2000/svg">
<g clip-path="url(#clip0_2444_106)">
<path d="M0.585914 0.00854492H256.586V256.009H0.585914V0.00854492Z" fill="#F7DF1E"/>
<path d="M67.8979 213.941L87.4879 202.085C91.2679 208.786 94.7059 214.456 102.953 214.456C110.858 214.456 115.843 211.364 115.843 199.336V117.538H139.9V199.676C139.9 224.593 125.294 235.935 103.984 235.935C84.7389 235.935 73.5679 225.968 67.8969 213.939L67.8979 213.941ZM152.967 211.363L172.555 200.022C177.712 208.443 184.414 214.629 196.27 214.629C206.239 214.629 212.595 209.645 212.595 202.771C212.595 194.523 206.065 191.601 195.067 186.791L189.054 184.211C171.697 176.824 160.184 167.544 160.184 147.954C160.184 129.91 173.931 116.162 195.412 116.162C210.706 116.162 221.704 121.49 229.608 135.409L210.876 147.439C206.751 140.05 202.285 137.129 195.411 137.129C188.365 137.129 183.897 141.597 183.897 147.439C183.897 154.656 188.365 157.579 198.675 162.047L204.689 164.624C225.139 173.389 236.652 182.324 236.652 202.428C236.652 224.082 219.64 235.938 196.785 235.938C174.446 235.938 160.011 225.284 152.966 211.364" fill="black"/>
</g>
<defs>
<clipPath id="clip0_2444_106">
<rect width="256" height="256" fill="white" transform="translate(0.585914 0.00854492)"/>
</clipPath>
</defs>
</svg>
