<svg width="301" height="301" viewBox="0 0 301 301" fill="none" xmlns="http://www.w3.org/2000/svg">
<g clip-path="url(#clip0_2444_102)">
<path d="M150.162 300.898C233.005 300.898 300.162 233.74 300.162 150.898C300.162 68.055 233.005 0.897705 150.162 0.897705C67.3195 0.897705 0.162231 68.055 0.162231 150.898C0.162231 233.74 67.3195 300.898 150.162 300.898Z" fill="#6332F6"/>
<path d="M190.362 201.798C190.362 196.398 189.312 191.748 187.212 187.848C185.112 183.948 182.262 180.448 178.662 177.348C175.062 174.248 170.762 171.448 165.762 168.948C160.762 166.448 155.362 163.798 149.562 160.998C142.762 157.798 135.912 154.398 129.012 150.798C122.112 147.198 115.912 142.998 110.412 138.198C104.912 133.398 100.462 127.848 97.0622 121.548C93.6622 115.248 91.9622 107.898 91.9622 99.4977C91.9622 92.4977 93.2622 85.5477 95.8622 78.6477C98.4622 71.7477 102.262 65.5977 107.262 60.1977C112.262 54.7977 118.512 50.3977 126.012 46.9977C133.512 43.5977 142.262 41.8977 152.262 41.8977C159.662 41.8977 166.512 42.8477 172.812 44.7477C179.112 46.6477 184.762 49.0977 189.762 52.0977C194.762 55.0977 199.162 58.3977 202.962 61.9977C206.762 65.5977 209.862 69.0977 212.262 72.4977L193.362 87.7977C191.562 85.1977 189.312 82.5977 186.612 79.9977C183.912 77.3977 180.812 75.0477 177.312 72.9477C173.812 70.8477 169.962 69.1477 165.762 67.8477C161.562 66.5477 157.062 65.8977 152.262 65.8977C146.462 65.8977 141.412 66.7977 137.112 68.5977C132.812 70.3977 129.162 72.7977 126.162 75.7977C123.162 78.7977 120.912 82.2477 119.412 86.1477C117.912 90.0477 117.162 93.9977 117.162 97.9977C117.162 102.998 118.262 107.348 120.462 111.048C122.662 114.748 125.762 118.198 129.762 121.398C133.762 124.598 138.662 127.698 144.462 130.698C150.262 133.698 156.762 136.798 163.962 139.998C171.962 143.598 179.212 147.348 185.712 151.248C192.212 155.148 197.712 159.398 202.212 163.998C206.712 168.598 210.162 173.798 212.562 179.598C214.962 185.398 216.162 192.198 216.162 199.998C216.162 209.198 214.512 217.448 211.212 224.748C207.912 232.048 203.362 238.248 197.562 243.348C191.762 248.448 184.912 252.348 177.012 255.048C169.112 257.748 160.662 259.098 151.662 259.098C142.662 259.098 134.562 257.848 127.362 255.348C120.162 252.848 113.762 249.548 108.162 245.448C102.562 241.348 97.7622 236.648 93.7622 231.348C89.7622 226.048 86.5622 220.698 84.1622 215.298L105.162 202.698C106.962 206.898 109.312 210.948 112.212 214.848C115.112 218.748 118.462 222.198 122.262 225.198C126.062 228.198 130.412 230.598 135.312 232.398C140.212 234.198 145.562 235.098 151.362 235.098C156.362 235.098 161.212 234.398 165.912 232.998C170.612 231.598 174.762 229.498 178.362 226.698C181.962 223.898 184.862 220.448 187.062 216.348C189.262 212.248 190.362 207.398 190.362 201.798Z" fill="white"/>
</g>
<defs>
<clipPath id="clip0_2444_102">
<rect width="300" height="300" fill="white" transform="translate(0.162231 0.897705)"/>
</clipPath>
</defs>
</svg>
